HIERARCHY
ROOT Hips
{
	OFFSET 0.000000 0.000000 0.000000
	CHANNELS 6 Xposition Yposition Zposition Zrotation Yrotation Xrotation
	JOINT LHipJoint
	{
		OFFSET 0.000000 0.000000 0.000000
		CHANNELS 3 Zrotation Yrotation Xrotation
		JOINT LeftUpLeg
		{
			OFFSET 0.076937 -0.101296 0.047373
			CHANNELS 3 Zrotation Yrotation Xrotation
			JOINT LeftLeg
			{
				OFFSET 0.138181 -0.379650 0.000000
				CHANNELS 3 Zrotation Yrotation Xrotation
				JOINT LeftFoot
				{
					OFFSET 0.144621 -0.397343 0.000000
					CHANNELS 3 Zrotation Yrotation Xrotation
					JOINT LeftToeBase
					{
						OFFSET 0.008898 -0.024446 0.131094
						CHANNELS 3 Zrotation Yrotation Xrotation
						End Site
						{
							OFFSET 0.000000 0.000000 0.000000
						}
					}
				}
			}
		}
	}
	JOINT RHipJoint
	{
		OFFSET 0.000000 0.000000 0.000000
		CHANNELS 3 Zrotation Yrotation Xrotation
		JOINT RightUpLeg
		{
			OFFSET -0.073689 -0.101296 0.047373
			CHANNELS 3 Zrotation Yrotation Xrotation
			JOINT RightLeg
			{
				OFFSET -0.143511 -0.394292 0.000000
				CHANNELS 3 Zrotation Yrotation Xrotation
				JOINT RightFoot
				{
					OFFSET -0.144963 -0.398282 0.000000
					CHANNELS 3 Zrotation Yrotation Xrotation
					JOINT RightToeBase
					{
						OFFSET -0.009298 -0.025546 0.133386
						CHANNELS 3 Zrotation Yrotation Xrotation
						End Site
						{
							OFFSET 0.000000 0.000000 0.000000
						}
					}
				}
			}
		}
	}
	JOINT LowerBack
	{
		OFFSET 0.000000 0.000000 0.000000
		CHANNELS 3 Zrotation Yrotation Xrotation
		JOINT Spine
		{
			OFFSET 0.001596 0.114897 -0.010915
			CHANNELS 3 Zrotation Yrotation Xrotation
			JOINT Spine1
			{
				OFFSET 0.003201 0.115645 -0.002413
				CHANNELS 3 Zrotation Yrotation Xrotation
				JOINT Neck
				{
					OFFSET 0.000000 0.000000 0.000000
					CHANNELS 3 Zrotation Yrotation Xrotation
					JOINT Neck1
					{
						OFFSET -0.003058 0.098565 0.009709
						CHANNELS 3 Zrotation Yrotation Xrotation
						JOINT Head
						{
							OFFSET 0.005874 0.099418 -0.006997
							CHANNELS 3 Zrotation Yrotation Xrotation
							End Site
							{
								OFFSET 0.000000 0.000000 0.000000
							}
						}
					}
				}
				JOINT LeftShoulder
				{
					OFFSET 0.000000 0.000000 0.000000
					CHANNELS 3 Zrotation Yrotation Xrotation
					JOINT LeftArm
					{
						OFFSET 0.189788 0.067783 -0.017566
						CHANNELS 3 Zrotation Yrotation Xrotation
						JOINT LeftForeArm
						{
							OFFSET 0.281260 -0.000000 -0.000000
							CHANNELS 3 Zrotation Yrotation Xrotation
							JOINT LeftHand
							{
								OFFSET 0.196626 -0.000000 -0.000000
								CHANNELS 3 Zrotation Yrotation Xrotation
								JOINT LeftFingerBase
								{
									OFFSET 0.000000 0.000000 0.000000
									CHANNELS 3 Zrotation Yrotation Xrotation
									JOINT LeftHandIndex1
									{
										OFFSET 0.040372 -0.000000 -0.000000
										CHANNELS 3 Zrotation Yrotation Xrotation
										End Site
										{
											OFFSET 0.000000 0.000000 0.000000
										}
									}
								}
								JOINT LThumb
								{
									OFFSET 0.000000 0.000000 0.000000
									CHANNELS 3 Zrotation Yrotation Xrotation
									End Site
									{
										OFFSET 0.000000 0.000000 0.000000
									}
								}
							}
						}
					}
				}
				JOINT RightShoulder
				{
					OFFSET 0.000000 0.000000 0.000000
					CHANNELS 3 Zrotation Yrotation Xrotation
					JOINT RightArm
					{
						OFFSET -0.177042 0.077557 -0.022840
						CHANNELS 3 Zrotation Yrotation Xrotation
						JOINT RightForeArm
						{
							OFFSET -0.295874 -0.000000 -0.000000
							CHANNELS 3 Zrotation Yrotation Xrotation
							JOINT RightHand
							{
								OFFSET -0.194403 -0.000000 -0.000000
								CHANNELS 3 Zrotation Yrotation Xrotation
								JOINT RightFingerBase
								{
									OFFSET 0.000000 0.000000 0.000000
									CHANNELS 3 Zrotation Yrotation Xrotation
									JOINT RightHandIndex1
									{
										OFFSET -0.035138 -0.000000 -0.000000
										CHANNELS 3 Zrotation Yrotation Xrotation
										End Site
										{
											OFFSET 0.000000 0.000000 0.000000
										}
									}
								}
								JOINT RThumb
								{
									OFFSET 0.000000 0.000000 0.000000
									CHANNELS 3 Zrotation Yrotation Xrotation
									End Site
									{
										OFFSET 0.000000 0.000000 0.000000
									}
								}
							}
						}
					}
				}
			}
		}
	}
}
MOTION
Frames: 5
Frame Time: 0.033333
23.397975 0.866803 -3.705994 0.565478 -3.636948 7.047426 -11.267128 30.698665 -19.815614 -36.420344 -14.064887 -25.814901 22.056788 -0.305439 66.923993 34.185545 -11.285972 -12.306892 -7.206268 7.569224 -11.661282 6.899129 -23.688483 -0.531715 14.031755 3.773961 -10.491245 -35.246128 -12.825390 65.878474 -64.113991 37.720553 -7.213976 9.428757 -30.617412 -13.377576 5.732494 -8.005580 58.486919 -8.469898 -7.829950 -0.725316 0.703985 5.252286 -8.514543 1.223991 -10.786335 -16.552428 7.050349 -10.979716 -9.216316 -2.801266 -7.445052 -18.439930 14.266531 24.375749 -0.762092 -81.605364 -13.542741 24.081724 -30.958025 -85.935634 40.297865 12.453585 -27.227489 15.814700 -1.649959 11.671140 0.568514 -0.013881 -0.005177 0.018245 0.010708 -0.006953 0.002230 -14.508898 -6.685451 -0.981584 86.102563 25.034372 28.353832 177.438604 76.540206 -173.759594 -16.072902 27.362369 13.901936 -0.064869 -10.000949 -0.086286 -0.024143 -0.061755 0.048523 -0.013271 -0.001239 0.029715 
23.386873 0.875337 -3.649754 0.966896 -4.505924 6.689032 -9.416873 29.371368 -15.953468 -31.558321 -13.092425 -26.096406 20.408386 0.340136 67.635225 33.621373 -10.906690 -13.417231 -7.111585 7.037416 -12.801570 8.668023 -24.491379 -3.093096 15.149958 5.581780 -14.895953 -40.349218 -9.057019 74.971845 -70.369492 40.176718 -12.039881 8.695681 -31.420120 -10.932663 5.630496 -6.564356 54.887054 -8.928970 -7.651600 0.786479 0.788454 4.959371 -12.966773 1.227065 -11.024899 -16.029577 7.640002 -11.196868 -7.886740 -2.655322 -8.072338 -17.083393 12.570813 25.372489 -1.366399 -79.127825 -13.922303 25.553247 -23.695001 -84.765791 33.358391 11.524020 -26.065437 13.793811 -0.895934 11.728329 0.571746 -0.016007 -0.002616 0.019804 0.011242 -0.008774 0.004443 -12.893700 -9.338419 -0.845860 84.492283 20.844864 33.220728 -178.771365 81.983077 -170.287372 -15.750534 26.505999 14.302018 0.669291 -10.612021 -0.106852 -0.025484 -0.058954 0.047276 -0.016039 -0.001819 0.027172 
23.372841 0.883494 -3.592653 1.061009 -5.757066 6.576838 -8.070323 27.412104 -12.227701 -25.803338 -11.359756 -25.960800 18.800035 1.822128 67.939656 32.182655 -10.004220 -14.782380 -7.291923 6.902289 -14.278699 9.843820 -25.275132 -5.976966 17.211005 7.642681 -19.784711 -41.013768 -5.800876 80.850912 -64.694131 36.089089 -11.354986 9.148353 -28.542626 -11.140376 5.111970 -4.561680 52.607725 -7.940669 -6.714680 0.981965 0.622078 4.073400 -16.199619 0.823875 -9.661538 -15.424549 7.538406 -9.862015 -7.476184 -2.528610 -7.533923 -16.676383 11.722771 25.120616 -1.760444 -79.552687 -15.176931 28.898048 -56.428250 -88.036780 65.630083 11.100406 -25.133773 11.469027 0.274511 11.105240 0.588214 -0.015159 -0.003492 0.021331 0.011088 -0.009383 0.004790 -11.916077 -12.732511 -0.561429 83.364169 16.184668 38.824117 -167.433489 84.702872 -160.868620 -14.719596 26.357993 14.212343 1.687641 -11.096898 -0.167910 -0.028922 -0.055090 0.046067 -0.016535 -0.002529 0.024634 
23.355897 0.894034 -3.533843 0.897621 -7.481435 6.595959 -7.083402 25.448764 -8.619246 -21.286513 -9.020541 -23.383894 17.330474 4.155099 65.786162 30.992421 -8.923802 -15.442072 -7.599894 6.900829 -15.879718 9.734684 -26.021195 -8.360856 19.994415 9.343742 -23.452386 -36.983065 -4.987422 81.497387 -54.295821 26.920362 -7.158498 8.668041 -22.738188 -11.892575 4.378280 -2.126130 51.121075 -5.669234 -4.603257 0.212733 -0.331364 2.048470 -17.373127 -0.266931 -6.440712 -14.753369 6.906200 -6.798815 -7.612944 -2.345842 -5.782252 -17.185649 11.589203 22.955570 -1.507183 -81.826783 -16.748797 32.088427 -161.456815 -85.487832 171.145341 12.131271 -24.745983 10.315253 1.370353 10.011123 0.552451 -0.010093 -0.007280 0.021795 0.009866 -0.010525 0.003291 -12.117749 -16.429308 -0.306521 83.324186 11.183707 43.394076 -161.538322 84.451628 -158.018786 -13.258670 26.482707 13.447244 2.732346 -11.302032 -0.233995 -0.031914 -0.052893 0.041631 -0.017275 -0.002278 0.022253 
23.336616 0.908019 -3.472534 0.694015 -9.875221 6.670109 -6.413792 23.514225 -4.992465 -17.753562 -6.874408 -19.381994 15.258784 6.875611 61.667250 29.912469 -7.429569 -12.651452 -8.125172 7.587783 -17.511190 8.468657 -27.242717 -10.202734 23.924668 11.113593 -25.626412 -29.663784 -4.469198 77.418988 -42.596339 14.204754 -2.590554 7.697339 -15.216414 -12.671831 3.039120 0.241923 49.608324 -2.187268 -2.158053 -0.489048 -2.166792 -0.646276 -17.446059 -1.727136 -2.469668 -14.373512 6.045793 -3.179923 -7.263971 -2.118149 -3.513398 -17.625942 11.554779 20.205697 -1.437761 -83.549032 -18.341511 34.098968 -171.945150 -80.388276 -177.727954 13.064297 -25.296331 9.685809 1.928563 9.477324 0.418868 -0.006277 -0.013008 0.019635 0.008284 -0.008673 0.002142 -13.330379 -20.041386 0.813663 82.513101 6.543425 45.647225 -162.260608 80.662277 -161.660538 -11.868974 27.022254 12.672192 3.663698 -11.105177 -0.254129 -0.032203 -0.053483 0.037096 -0.014875 -0.002058 0.021415 
